<?xml version="1.0" encoding="utf-8"?>
<!-- Generator: Adobe Illustrator 24.1.0, SVG Export Plug-In . SVG Version: 6.00 Build 0)  -->
<svg version="1.1" id="Layer_1" xmlns="http://www.w3.org/2000/svg" xmlns:xlink="http://www.w3.org/1999/xlink" x="0px" y="0px"
	 viewBox="0 0 612 792" style="enable-background:new 0 0 612 792;" xml:space="preserve">
<style type="text/css">
	.st0{fill:#FFFFFF;}
</style>
<g>
	<g>
		<path d="M269.27,397.79h-2.06v4.82h-3.38v-13.2h6.3c1.6,0,2.83,0.36,3.69,1.08c0.86,0.72,1.29,1.76,1.29,3.12
			c0,0.96-0.22,1.76-0.66,2.4s-1.08,1.11-1.92,1.42l3.36,5.18h-3.8L269.27,397.79z M267.21,395.35h2.34c0.73,0,1.27-0.13,1.6-0.4
			c0.33-0.27,0.5-0.69,0.5-1.28c0-0.57-0.17-0.99-0.5-1.26c-0.33-0.27-0.87-0.4-1.6-0.4h-2.34V395.35z"/>
		<path d="M286.07,398.59h-6.82c0.11,0.63,0.34,1.09,0.69,1.38c0.35,0.29,0.82,0.44,1.41,0.44c0.49,0,0.9-0.09,1.21-0.28
			c0.31-0.19,0.52-0.46,0.63-0.82l2.76,0.88c-0.28,0.85-0.82,1.5-1.63,1.95c-0.81,0.45-1.8,0.67-2.97,0.67
			c-1.75,0-3.08-0.45-4.01-1.36c-0.93-0.91-1.39-2.19-1.39-3.84c0-1.65,0.45-2.93,1.36-3.84c0.91-0.91,2.19-1.36,3.86-1.36
			c1.61,0,2.85,0.44,3.71,1.33c0.86,0.89,1.29,2.13,1.29,3.73C286.17,397.93,286.14,398.3,286.07,398.59z M279.23,396.75h3.76
			c-0.16-1.31-0.77-1.96-1.84-1.96C280.07,394.79,279.43,395.45,279.23,396.75z"/>
		<path d="M291.03,399.16c0,0.45,0.07,0.77,0.2,0.96s0.37,0.28,0.72,0.28c0.32,0,0.66-0.06,1.02-0.18l-0.22,2.1
			c-0.24,0.15-0.55,0.27-0.94,0.36c-0.39,0.09-0.77,0.14-1.14,0.14c-1.07,0-1.84-0.25-2.32-0.75s-0.72-1.3-0.72-2.41v-11.28h3.4
			V399.16z"/>
		<path d="M294.4,391.06c-0.31-0.26-0.47-0.67-0.47-1.23c0-0.57,0.16-0.99,0.47-1.25c0.31-0.26,0.82-0.39,1.51-0.39
			s1.2,0.13,1.51,0.39c0.31,0.26,0.47,0.68,0.47,1.25c0,0.56-0.16,0.97-0.47,1.23c-0.31,0.26-0.82,0.39-1.51,0.39
			S294.71,391.32,294.4,391.06z M297.61,402.62h-3.4v-10h3.4V402.62z"/>
		<path d="M309.27,398.59h-6.82c0.11,0.63,0.34,1.09,0.69,1.38c0.35,0.29,0.82,0.44,1.41,0.44c0.49,0,0.9-0.09,1.21-0.28
			c0.31-0.19,0.52-0.46,0.63-0.82l2.76,0.88c-0.28,0.85-0.82,1.5-1.63,1.95c-0.81,0.45-1.8,0.67-2.97,0.67
			c-1.75,0-3.08-0.45-4.01-1.36c-0.93-0.91-1.39-2.19-1.39-3.84c0-1.65,0.45-2.93,1.36-3.84c0.91-0.91,2.19-1.36,3.86-1.36
			c1.61,0,2.85,0.44,3.71,1.33c0.86,0.89,1.29,2.13,1.29,3.73C309.37,397.93,309.33,398.3,309.27,398.59z M302.43,396.75h3.76
			c-0.16-1.31-0.77-1.96-1.84-1.96C303.27,394.79,302.63,395.45,302.43,396.75z"/>
		<path d="M315.11,392.61h3.04v2.42h-2.84v7.58h-3.4v-7.58h-1.6v-2.42h1.6v-0.92c0-1.2,0.37-2.1,1.12-2.7
			c0.75-0.6,1.72-0.9,2.92-0.9c1.04,0,1.81,0.19,2.3,0.58l-0.34,2.12c-0.29-0.21-0.67-0.32-1.14-0.32c-1.11,0-1.66,0.48-1.66,1.44
			V392.61z"/>
		<path d="M333.11,398.47h-6.32l-1.64,4.14h-1.06l5.28-13.2h1.18l5.28,13.2h-1.06L333.11,398.47z M332.75,397.55l-2.3-5.76
			l-0.48-1.4h-0.02l-0.48,1.36l-2.3,5.8H332.75z"/>
		<path d="M342.53,401.97c-0.27,0.27-0.59,0.47-0.98,0.62s-0.81,0.22-1.28,0.22c-0.81,0-1.45-0.22-1.91-0.67
			c-0.46-0.45-0.69-1.12-0.69-2.03v-6.64h-2v-0.86h2v-2.5l1-0.28v2.78h3.76v0.86h-3.76v6.5c0,0.63,0.15,1.1,0.45,1.43
			c0.3,0.33,0.74,0.49,1.31,0.49c0.67,0,1.25-0.25,1.74-0.74L342.53,401.97z"/>
		<path d="M345.47,400.2c0,0.61,0.1,1.05,0.29,1.3s0.52,0.38,0.97,0.38c0.27,0,0.49-0.02,0.68-0.06c0.19-0.04,0.4-0.11,0.64-0.22
			l-0.14,0.96c-0.37,0.17-0.81,0.26-1.32,0.26c-0.72,0-1.25-0.2-1.6-0.61c-0.35-0.41-0.52-1.04-0.52-1.91v-12.28h1V400.2z"/>
		<path d="M358.85,401.82l-0.06,0.8c-0.24,0.13-0.57,0.2-0.98,0.2c-0.47,0-0.85-0.13-1.14-0.38c-0.29-0.25-0.46-0.69-0.5-1.32
			c-0.31,0.53-0.8,0.95-1.48,1.25c-0.68,0.3-1.39,0.45-2.14,0.45c-0.99,0-1.78-0.22-2.37-0.66c-0.59-0.44-0.89-1.07-0.89-1.88
			c0-1.55,1.27-2.55,3.8-3l3.06-0.54v-0.88c0-0.8-0.24-1.43-0.71-1.88c-0.47-0.45-1.14-0.68-2.01-0.68c-1.59,0-2.65,0.71-3.2,2.12
			l-0.76-0.56c0.29-0.79,0.78-1.39,1.46-1.81c0.68-0.42,1.51-0.63,2.5-0.63c1.16,0,2.07,0.28,2.73,0.85
			c0.66,0.57,0.99,1.39,0.99,2.47v5.16c0,0.71,0.31,1.06,0.92,1.06C358.4,401.96,358.66,401.91,358.85,401.82z M354.29,401.64
			c0.53-0.19,0.98-0.48,1.33-0.86s0.53-0.84,0.53-1.37v-1.86l-2.74,0.5c-1.08,0.2-1.87,0.48-2.36,0.84
			c-0.49,0.36-0.74,0.82-0.74,1.38c0,0.53,0.21,0.94,0.62,1.23c0.41,0.29,0.99,0.43,1.72,0.43
			C353.21,401.93,353.75,401.84,354.29,401.64z"/>
		<path d="M367.94,393.37c0.7,0.64,1.05,1.56,1.05,2.76v6.48h-1v-6.16c0-1.07-0.26-1.86-0.78-2.38c-0.52-0.52-1.23-0.78-2.14-0.78
			c-0.64,0-1.23,0.15-1.78,0.44s-0.98,0.72-1.31,1.28c-0.33,0.56-0.49,1.21-0.49,1.96v5.64h-1v-10h0.9l0.04,2.02
			c0.32-0.72,0.81-1.27,1.47-1.65s1.42-0.57,2.27-0.57C366.31,392.41,367.24,392.73,367.94,393.37z"/>
		<path d="M376.91,401.97c-0.27,0.27-0.59,0.47-0.98,0.62s-0.81,0.22-1.28,0.22c-0.81,0-1.45-0.22-1.91-0.67
			c-0.46-0.45-0.69-1.12-0.69-2.03v-6.64h-2v-0.86h2v-2.5l1-0.28v2.78h3.76v0.86h-3.76v6.5c0,0.63,0.15,1.1,0.45,1.43
			c0.3,0.33,0.74,0.49,1.31,0.49c0.67,0,1.25-0.25,1.74-0.74L376.91,401.97z"/>
		<path d="M387.75,401.82l-0.06,0.8c-0.24,0.13-0.57,0.2-0.98,0.2c-0.47,0-0.85-0.13-1.14-0.38c-0.29-0.25-0.46-0.69-0.5-1.32
			c-0.31,0.53-0.8,0.95-1.48,1.25c-0.68,0.3-1.39,0.45-2.14,0.45c-0.99,0-1.78-0.22-2.37-0.66c-0.59-0.44-0.89-1.07-0.89-1.88
			c0-1.55,1.27-2.55,3.8-3l3.06-0.54v-0.88c0-0.8-0.24-1.43-0.71-1.88c-0.47-0.45-1.14-0.68-2.01-0.68c-1.59,0-2.65,0.71-3.2,2.12
			l-0.76-0.56c0.29-0.79,0.78-1.39,1.46-1.81c0.68-0.42,1.51-0.63,2.5-0.63c1.16,0,2.07,0.28,2.73,0.85
			c0.66,0.57,0.99,1.39,0.99,2.47v5.16c0,0.71,0.31,1.06,0.92,1.06C387.3,401.96,387.56,401.91,387.75,401.82z M383.19,401.64
			c0.53-0.19,0.98-0.48,1.33-0.86c0.35-0.38,0.53-0.84,0.53-1.37v-1.86l-2.74,0.5c-1.08,0.2-1.87,0.48-2.36,0.84
			c-0.49,0.36-0.74,0.82-0.74,1.38c0,0.53,0.21,0.94,0.62,1.23c0.41,0.29,0.99,0.43,1.72,0.43
			C382.11,401.93,382.65,401.84,383.19,401.64z"/>
	</g>
	<g>
		<circle class="st0" cx="231.72" cy="395.68" r="18.43"/>
		<path d="M231.72,373.62c-12.18,0-22.06,9.88-22.06,22.06s9.88,22.06,22.06,22.06s22.06-9.88,22.06-22.06
			S243.9,373.62,231.72,373.62z M231.72,411.22c-8.58,0-15.54-6.96-15.54-15.54c0-8.58,6.96-15.54,15.54-15.54
			c8.58,0,15.54,6.96,15.54,15.54C247.26,404.27,240.3,411.22,231.72,411.22z"/>
		<g>
			<path d="M224.74,397.79h-2.06v4.82h-3.38v-13.2h6.3c1.6,0,2.83,0.36,3.69,1.08c0.86,0.72,1.29,1.76,1.29,3.12
				c0,0.96-0.22,1.76-0.66,2.4s-1.08,1.11-1.92,1.42l3.36,5.18h-3.8L224.74,397.79z M222.68,395.35h2.34c0.73,0,1.27-0.13,1.6-0.4
				c0.33-0.27,0.5-0.69,0.5-1.28c0-0.57-0.17-0.99-0.5-1.26c-0.33-0.27-0.87-0.4-1.6-0.4h-2.34V395.35z"/>
			<path d="M241.42,398.47h-6.32l-1.64,4.14h-1.06l5.28-13.2h1.18l5.28,13.2h-1.06L241.42,398.47z M241.06,397.55l-2.3-5.76
				l-0.48-1.4h-0.02l-0.48,1.36l-2.3,5.8H241.06z"/>
		</g>
	</g>
</g>
</svg>
